<?xml version="1.0" standalone="no"?>
<!DOCTYPE svg PUBLIC "-//W3C//DTD SVG 20010904//EN"
 "http://www.w3.org/TR/2001/REC-SVG-20010904/DTD/svg10.dtd">
<svg version="1.0" xmlns="http://www.w3.org/2000/svg"
 width="250.000000pt" height="250.000000pt" viewBox="0 0 250.000000 250.000000"
 preserveAspectRatio="xMidYMid meet">
<metadata>
Created by potrace 1.14, written by Peter Selinger 2001-2017
</metadata>
<g transform="translate(0.000000,250.000000) scale(0.100000,-0.100000)"
fill="#000000" stroke="none">
<path d="M1088 2435 c-2 -2 -35 -9 -72 -15 -202 -32 -464 -173 -617 -331 -149
-156 -266 -365 -309 -554 -7 -27 -14 -59 -17 -70 -3 -11 -7 -92 -10 -180 -6
-177 6 -271 53 -412 115 -345 402 -635 744 -752 241 -83 547 -82 785 1 283 98
529 314 668 585 53 105 82 187 108 308 28 134 21 403 -14 530 -97 354 -325
631 -639 780 -90 42 -205 83 -251 90 -12 2 -44 8 -72 13 -47 10 -348 16 -357
7z"/>
</g>
</svg>
